<svg xmlns="http://www.w3.org/2000/svg" viewBox="0 0 12 12" shape-rendering="crispEdges">
  <rect width="12" height="12" fill="#000000"/>
  <rect x="3" y="1" width="6" height="1" fill="#ffffff"/>
  <rect x="3" y="2" width="1" height="1" fill="#ffffff"/>
  <rect x="8" y="2" width="1" height="1" fill="#ffffff"/>
  <rect x="2" y="3" width="8" height="1" fill="#ffffff"/>
  <rect x="2" y="4" width="2" height="1" fill="#ffffff"/>
  <rect x="8" y="4" width="2" height="1" fill="#ffffff"/>
  <rect x="2" y="5" width="2" height="1" fill="#ffffff"/>
  <rect x="6" y="5" width="4" height="1" fill="#ffffff"/>
  <rect x="2" y="6" width="4" height="1" fill="#ffffff"/>
  <rect x="8" y="6" width="2" height="1" fill="#ffffff"/>
  <rect x="2" y="7" width="2" height="1" fill="#ffffff"/>
  <rect x="8" y="7" width="2" height="1" fill="#ffffff"/>
  <rect x="2" y="8" width="8" height="1" fill="#ffffff"/>
  <rect x="3" y="9" width="1" height="1" fill="#ffffff"/>
  <rect x="8" y="9" width="1" height="1" fill="#ffffff"/>
  <rect x="3" y="10" width="6" height="1" fill="#ffffff"/>
</svg>
